<?xml version="1.0" encoding="utf-8" standalone="no"?>
<!DOCTYPE svg PUBLIC "-//W3C//DTD SVG 1.1//EN"
  "http://www.w3.org/Graphics/SVG/1.1/DTD/svg11.dtd">
<!-- Created with matplotlib (https://matplotlib.org/) -->
<svg height="489.0575pt" version="1.1" viewBox="0 0 291.817187 489.0575" width="291.817187pt" xmlns="http://www.w3.org/2000/svg" xmlns:xlink="http://www.w3.org/1999/xlink">
 <metadata>
  <rdf:RDF xmlns:cc="http://creativecommons.org/ns#" xmlns:dc="http://purl.org/dc/elements/1.1/" xmlns:rdf="http://www.w3.org/1999/02/22-rdf-syntax-ns#">
   <cc:Work>
    <dc:type rdf:resource="http://purl.org/dc/dcmitype/StillImage"/>
    <dc:date>2021-02-27T12:54:25.911759</dc:date>
    <dc:format>image/svg+xml</dc:format>
    <dc:creator>
     <cc:Agent>
      <dc:title>Matplotlib v3.3.1, https://matplotlib.org/</dc:title>
     </cc:Agent>
    </dc:creator>
   </cc:Work>
  </rdf:RDF>
 </metadata>
 <defs>
  <style type="text/css">*{stroke-linecap:butt;stroke-linejoin:round;}</style>
 </defs>
 <g id="figure_1">
  <g id="patch_1">
   <path d="M 0 489.0575 
L 291.817187 489.0575 
L 291.817187 0 
L 0 0 
z
" style="fill:#ffffff;"/>
  </g>
  <g id="axes_1">
   <g id="patch_2">
    <path d="M 45.76875 450.72 
L 213.16875 450.72 
L 213.16875 7.2 
L 45.76875 7.2 
z
" style="fill:#ffffff;"/>
   </g>
   <g id="PathCollection_1">
    <path clip-path="url(#p0fb18b48af)" d="M 53.377841 30.421862 
C 54.189856 30.421862 54.968723 30.099245 55.542904 29.525064 
C 56.117086 28.950882 56.439703 28.172015 56.439703 27.36 
C 56.439703 26.547985 56.117086 25.769118 55.542904 25.194936 
C 54.968723 24.620755 54.189856 24.298138 53.377841 24.298138 
C 52.565826 24.298138 51.786959 24.620755 51.212777 25.194936 
C 50.638596 25.769118 50.315979 26.547985 50.315979 27.36 
C 50.315979 28.172015 50.638596 28.950882 51.212777 29.525064 
C 51.786959 30.099245 52.565826 30.421862 53.377841 30.421862 
z
" style="fill:#440154;stroke:#440154;"/>
    <path clip-path="url(#p0fb18b48af)" d="M 53.377841 56.245514 
C 54.189856 56.245514 54.968723 55.922897 55.542904 55.348716 
C 56.117086 54.774534 56.439703 53.995668 56.439703 53.183652 
C 56.439703 52.371637 56.117086 51.59277 55.542904 51.018589 
C 54.968723 50.444407 54.189856 50.12179 53.377841 50.12179 
C 52.565826 50.12179 51.786959 50.444407 51.212777 51.018589 
C 50.638596 51.59277 50.315979 52.371637 50.315979 53.183652 
C 50.315979 53.995668 50.638596 54.774534 51.212777 55.348716 
C 51.786959 55.922897 52.565826 56.245514 53.377841 56.245514 
z
" style="fill:#fde725;stroke:#fde725;"/>
    <path clip-path="url(#p0fb18b48af)" d="M 104.105114 105.252631 
C 104.917129 105.252631 105.695996 104.930014 106.270177 104.355833 
C 106.844359 103.781651 107.166976 103.002785 107.166976 102.190769 
C 107.166976 101.378754 106.844359 100.599887 106.270177 100.025706 
C 105.695996 99.451524 104.917129 99.128907 104.105114 99.128907 
C 103.293098 99.128907 102.514232 99.451524 101.94005 100.025706 
C 101.365869 100.599887 101.043251 101.378754 101.043251 102.190769 
C 101.043251 103.002785 101.365869 103.781651 101.94005 104.355833 
C 102.514232 104.930014 103.293098 105.252631 104.105114 105.252631 
z
" style="fill:#440154;stroke:#440154;"/>
    <path clip-path="url(#p0fb18b48af)" d="M 154.832386 112.300405 
C 155.644402 112.300405 156.423268 111.977788 156.99745 111.403606 
C 157.571631 110.829424 157.894249 110.050558 157.894249 109.238543 
C 157.894249 108.426527 157.571631 107.647661 156.99745 107.073479 
C 156.423268 106.499297 155.644402 106.17668 154.832386 106.17668 
C 154.020371 106.17668 153.241504 106.499297 152.667323 107.073479 
C 152.093141 107.647661 151.770524 108.426527 151.770524 109.238543 
C 151.770524 110.050558 152.093141 110.829424 152.667323 111.403606 
C 153.241504 111.977788 154.020371 112.300405 154.832386 112.300405 
z
" style="fill:#440154;stroke:#440154;"/>
    <path clip-path="url(#p0fb18b48af)" d="M 154.832386 124.584914 
C 155.644402 124.584914 156.423268 124.262296 156.99745 123.688115 
C 157.571631 123.113933 157.894249 122.335067 157.894249 121.523051 
C 157.894249 120.711036 157.571631 119.932169 156.99745 119.357988 
C 156.423268 118.783806 155.644402 118.461189 154.832386 118.461189 
C 154.020371 118.461189 153.241504 118.783806 152.667323 119.357988 
C 152.093141 119.932169 151.770524 120.711036 151.770524 121.523051 
C 151.770524 122.335067 152.093141 123.113933 152.667323 123.688115 
C 153.241504 124.262296 154.020371 124.584914 154.832386 124.584914 
z
" style="fill:#fde725;stroke:#fde725;"/>
    <path clip-path="url(#p0fb18b48af)" d="M 104.105114 129.003409 
C 104.917129 129.003409 105.695996 128.680792 106.270177 128.10661 
C 106.844359 127.532429 107.166976 126.753562 107.166976 125.941547 
C 107.166976 125.129532 106.844359 124.350665 106.270177 123.776483 
C 105.695996 123.202302 104.917129 122.879685 104.105114 122.879685 
C 103.293098 122.879685 102.514232 123.202302 101.94005 123.776483 
C 101.365869 124.350665 101.043251 125.129532 101.043251 125.941547 
C 101.043251 126.753562 101.365869 127.532429 101.94005 128.10661 
C 102.514232 128.680792 103.293098 129.003409 104.105114 129.003409 
z
" style="fill:#fde725;stroke:#fde725;"/>
    <path clip-path="url(#p0fb18b48af)" d="M 53.377841 140.40882 
C 54.526204 140.40882 55.627688 139.952571 56.439703 139.140555 
C 57.251718 138.32854 57.707968 137.227056 57.707968 136.078693 
C 57.707968 134.93033 57.251718 133.828846 56.439703 133.016831 
C 55.627688 132.204816 54.526204 131.748566 53.377841 131.748566 
C 52.229478 131.748566 51.127994 132.204816 50.315979 133.016831 
C 49.503963 133.828846 49.047714 134.93033 49.047714 136.078693 
C 49.047714 137.227056 49.503963 138.32854 50.315979 139.140555 
C 51.127994 139.952571 52.229478 140.40882 53.377841 140.40882 
z
" style="fill:#fde725;stroke:#fde725;"/>
    <path clip-path="url(#p0fb18b48af)" d="M 53.377841 151.554095 
C 54.526204 151.554095 55.627688 151.097845 56.439703 150.28583 
C 57.251718 149.473814 57.707968 148.372331 57.707968 147.223968 
C 57.707968 146.075605 57.251718 144.974121 56.439703 144.162105 
C 55.627688 143.35009 54.526204 142.893841 53.377841 142.893841 
C 52.229478 142.893841 51.127994 143.35009 50.315979 144.162105 
C 49.503963 144.974121 49.047714 146.075605 49.047714 147.223968 
C 49.047714 148.372331 49.503963 149.473814 50.315979 150.28583 
C 51.127994 151.097845 52.229478 151.554095 53.377841 151.554095 
z
" style="fill:#440154;stroke:#440154;"/>
    <path clip-path="url(#p0fb18b48af)" d="M 205.559659 168.060729 
C 206.371674 168.060729 207.150541 167.738111 207.724723 167.16393 
C 208.298904 166.589748 208.621521 165.810882 208.621521 164.998866 
C 208.621521 164.186851 208.298904 163.407984 207.724723 162.833803 
C 207.150541 162.259621 206.371674 161.937004 205.559659 161.937004 
C 204.747644 161.937004 203.968777 162.259621 203.394596 162.833803 
C 202.820414 163.407984 202.497797 164.186851 202.497797 164.998866 
C 202.497797 165.810882 202.820414 166.589748 203.394596 167.16393 
C 203.968777 167.738111 204.747644 168.060729 205.559659 168.060729 
z
" style="fill:#440154;stroke:#440154;"/>
    <path clip-path="url(#p0fb18b48af)" d="M 205.559659 178.49056 
C 206.371674 178.49056 207.150541 178.167943 207.724723 177.593762 
C 208.298904 177.01958 208.621521 176.240713 208.621521 175.428698 
C 208.621521 174.616683 208.298904 173.837816 207.724723 173.263635 
C 207.150541 172.689453 206.371674 172.366836 205.559659 172.366836 
C 204.747644 172.366836 203.968777 172.689453 203.394596 173.263635 
C 202.820414 173.837816 202.497797 174.616683 202.497797 175.428698 
C 202.497797 176.240713 202.820414 177.01958 203.394596 177.593762 
C 203.968777 178.167943 204.747644 178.49056 205.559659 178.49056 
z
" style="fill:#fde725;stroke:#fde725;"/>
    <path clip-path="url(#p0fb18b48af)" d="M 205.559659 267.783384 
C 206.708022 267.783384 207.809506 267.327135 208.621521 266.515119 
C 209.433537 265.703104 209.889786 264.60162 209.889786 263.453257 
C 209.889786 262.304894 209.433537 261.20341 208.621521 260.391395 
C 207.809506 259.579379 206.708022 259.12313 205.559659 259.12313 
C 204.411296 259.12313 203.309812 259.579379 202.497797 260.391395 
C 201.685782 261.20341 201.229532 262.304894 201.229532 263.453257 
C 201.229532 264.60162 201.685782 265.703104 202.497797 266.515119 
C 203.309812 267.327135 204.411296 267.783384 205.559659 267.783384 
z
" style="fill:#fde725;stroke:#fde725;"/>
    <path clip-path="url(#p0fb18b48af)" d="M 205.559659 286.296119 
C 206.708022 286.296119 207.809506 285.839869 208.621521 285.027854 
C 209.433537 284.215839 209.889786 283.114355 209.889786 281.965992 
C 209.889786 280.817629 209.433537 279.716145 208.621521 278.90413 
C 207.809506 278.092114 206.708022 277.635865 205.559659 277.635865 
C 204.411296 277.635865 203.309812 278.092114 202.497797 278.90413 
C 201.685782 279.716145 201.229532 280.817629 201.229532 281.965992 
C 201.229532 283.114355 201.685782 284.215839 202.497797 285.027854 
C 203.309812 285.839869 204.411296 286.296119 205.559659 286.296119 
z
" style="fill:#440154;stroke:#440154;"/>
    <path clip-path="url(#p0fb18b48af)" d="M 154.832386 311.481544 
C 155.980749 311.481544 157.082233 311.025295 157.894249 310.213279 
C 158.706264 309.401264 159.162513 308.29978 159.162513 307.151417 
C 159.162513 306.003054 158.706264 304.90157 157.894249 304.089555 
C 157.082233 303.277539 155.980749 302.82129 154.832386 302.82129 
C 153.684023 302.82129 152.58254 303.277539 151.770524 304.089555 
C 150.958509 304.90157 150.502259 306.003054 150.502259 307.151417 
C 150.502259 308.29978 150.958509 309.401264 151.770524 310.213279 
C 152.58254 311.025295 153.684023 311.481544 154.832386 311.481544 
z
" style="fill:#440154;stroke:#440154;"/>
    <path clip-path="url(#p0fb18b48af)" d="M 104.105114 322.395228 
C 105.253477 322.395228 106.35496 321.938979 107.166976 321.126963 
C 107.978991 320.314948 108.435241 319.213464 108.435241 318.065101 
C 108.435241 316.916738 107.978991 315.815254 107.166976 315.003239 
C 106.35496 314.191224 105.253477 313.734974 104.105114 313.734974 
C 102.956751 313.734974 101.855267 314.191224 101.043251 315.003239 
C 100.231236 315.815254 99.774987 316.916738 99.774987 318.065101 
C 99.774987 319.213464 100.231236 320.314948 101.043251 321.126963 
C 101.855267 321.938979 102.956751 322.395228 104.105114 322.395228 
z
" style="fill:#440154;stroke:#440154;"/>
    <path clip-path="url(#p0fb18b48af)" d="M 154.832386 335.523493 
C 155.980749 335.523493 157.082233 335.067243 157.894249 334.255228 
C 158.706264 333.443213 159.162513 332.341729 159.162513 331.193366 
C 159.162513 330.045003 158.706264 328.943519 157.894249 328.131504 
C 157.082233 327.319488 155.980749 326.863239 154.832386 326.863239 
C 153.684023 326.863239 152.58254 327.319488 151.770524 328.131504 
C 150.958509 328.943519 150.502259 330.045003 150.502259 331.193366 
C 150.502259 332.341729 150.958509 333.443213 151.770524 334.255228 
C 152.58254 335.067243 153.684023 335.523493 154.832386 335.523493 
z
" style="fill:#fde725;stroke:#fde725;"/>
    <path clip-path="url(#p0fb18b48af)" d="M 104.105114 372.577911 
C 105.253477 372.577911 106.35496 372.121662 107.166976 371.309647 
C 107.978991 370.497631 108.435241 369.396148 108.435241 368.247784 
C 108.435241 367.099421 107.978991 365.997938 107.166976 365.185922 
C 106.35496 364.373907 105.253477 363.917657 104.105114 363.917657 
C 102.956751 363.917657 101.855267 364.373907 101.043251 365.185922 
C 100.231236 365.997938 99.774987 367.099421 99.774987 368.247784 
C 99.774987 369.396148 100.231236 370.497631 101.043251 371.309647 
C 101.855267 372.121662 102.956751 372.577911 104.105114 372.577911 
z
" style="fill:#fde725;stroke:#fde725;"/>
   </g>
   <g id="PathCollection_2">
    <path clip-path="url(#p0fb18b48af)" d="M 50.315979 156.707368 
L 56.439703 156.707368 
M 53.377841 159.769231 
L 53.377841 153.645506 
" style="fill:#440154;stroke:#440154;stroke-width:1.5;"/>
    <path clip-path="url(#p0fb18b48af)" d="M 50.315979 167.475406 
L 56.439703 167.475406 
M 53.377841 170.537268 
L 53.377841 164.413544 
" style="fill:#fde725;stroke:#fde725;stroke-width:1.5;"/>
    <path clip-path="url(#p0fb18b48af)" d="M 101.043251 226.148664 
L 107.166976 226.148664 
M 104.105114 229.210526 
L 104.105114 223.086802 
" style="fill:#440154;stroke:#440154;stroke-width:1.5;"/>
    <path clip-path="url(#p0fb18b48af)" d="M 101.043251 226.388681 
L 107.166976 226.388681 
M 104.105114 229.450543 
L 104.105114 223.326819 
" style="fill:#fde725;stroke:#fde725;stroke-width:1.5;"/>
    <path clip-path="url(#p0fb18b48af)" d="M 202.497797 291.48785 
L 208.621521 291.48785 
M 205.559659 294.549712 
L 205.559659 288.425988 
" style="fill:#fde725;stroke:#fde725;stroke-width:1.5;"/>
    <path clip-path="url(#p0fb18b48af)" d="M 99.774987 292.980997 
L 108.435241 292.980997 
M 104.105114 297.311124 
L 104.105114 288.65087 
" style="fill:#fde725;stroke:#fde725;stroke-width:1.5;"/>
    <path clip-path="url(#p0fb18b48af)" d="M 151.770524 295.611779 
L 157.894249 295.611779 
M 154.832386 298.673641 
L 154.832386 292.549917 
" style="fill:#fde725;stroke:#fde725;stroke-width:1.5;"/>
    <path clip-path="url(#p0fb18b48af)" d="M 99.774987 312.188502 
L 108.435241 312.188502 
M 104.105114 316.518629 
L 104.105114 307.858375 
" style="fill:#440154;stroke:#440154;stroke-width:1.5;"/>
    <path clip-path="url(#p0fb18b48af)" d="M 202.497797 329.585101 
L 208.621521 329.585101 
M 205.559659 332.646963 
L 205.559659 326.523239 
" style="fill:#440154;stroke:#440154;stroke-width:1.5;"/>
    <path clip-path="url(#p0fb18b48af)" d="M 49.047714 332.351316 
L 57.707968 332.351316 
M 53.377841 336.681444 
L 53.377841 328.021189 
" style="fill:#fde725;stroke:#fde725;stroke-width:1.5;"/>
    <path clip-path="url(#p0fb18b48af)" d="M 151.770524 337.047449 
L 157.894249 337.047449 
M 154.832386 340.109312 
L 154.832386 333.985587 
" style="fill:#440154;stroke:#440154;stroke-width:1.5;"/>
    <path clip-path="url(#p0fb18b48af)" d="M 49.047714 349.546883 
L 57.707968 349.546883 
M 53.377841 353.87701 
L 53.377841 345.216756 
" style="fill:#440154;stroke:#440154;stroke-width:1.5;"/>
    <path clip-path="url(#p0fb18b48af)" d="M 201.229532 355.510328 
L 209.889786 355.510328 
M 205.559659 359.840455 
L 205.559659 351.180201 
" style="fill:#fde725;stroke:#fde725;stroke-width:1.5;"/>
    <path clip-path="url(#p0fb18b48af)" d="M 150.502259 381.564216 
L 159.162513 381.564216 
M 154.832386 385.894343 
L 154.832386 377.234089 
" style="fill:#fde725;stroke:#fde725;stroke-width:1.5;"/>
    <path clip-path="url(#p0fb18b48af)" d="M 150.502259 390.683077 
L 159.162513 390.683077 
M 154.832386 395.013204 
L 154.832386 386.35295 
" style="fill:#440154;stroke:#440154;stroke-width:1.5;"/>
    <path clip-path="url(#p0fb18b48af)" d="M 201.229532 399.078219 
L 209.889786 399.078219 
M 205.559659 403.408346 
L 205.559659 394.748092 
" style="fill:#440154;stroke:#440154;stroke-width:1.5;"/>
   </g>
   <g id="PathCollection_3">
    <path clip-path="url(#p0fb18b48af)" d="M 205.559659 321.239054 
L 205.559659 318.177192 
M 205.559659 321.239054 
L 203.110169 322.769985 
M 205.559659 321.239054 
L 208.009149 322.769985 
" style="fill:#fde725;stroke:#fde725;stroke-width:1.5;"/>
    <path clip-path="url(#p0fb18b48af)" d="M 205.559659 373.53004 
L 205.559659 370.468178 
M 205.559659 373.53004 
L 203.110169 375.060972 
M 205.559659 373.53004 
L 208.009149 375.060972 
" style="fill:#440154;stroke:#440154;stroke-width:1.5;"/>
    <path clip-path="url(#p0fb18b48af)" d="M 205.559659 408.197079 
L 205.559659 403.866952 
M 205.559659 408.197079 
L 202.095557 410.362143 
M 205.559659 408.197079 
L 209.023761 410.362143 
" style="fill:#fde725;stroke:#fde725;stroke-width:1.5;"/>
    <path clip-path="url(#p0fb18b48af)" d="M 205.559659 430.56 
L 205.559659 426.229873 
M 205.559659 430.56 
L 202.095557 432.725064 
M 205.559659 430.56 
L 209.023761 432.725064 
" style="fill:#440154;stroke:#440154;stroke-width:1.5;"/>
   </g>
   <g id="matplotlib.axis_1">
    <g id="xtick_1">
     <g id="line2d_1">
      <defs>
       <path d="M 0 0 
L 0 3.5 
" id="m93c03c0918" style="stroke:#000000;stroke-width:0.8;"/>
      </defs>
      <g>
       <use style="stroke:#000000;stroke-width:0.8;" x="53.377841" xlink:href="#m93c03c0918" y="450.72"/>
      </g>
     </g>
     <g id="text_1">
      <text style="font-family:TeX Gyre Pagella;font-size:10px;font-stretch:normal;font-style:normal;font-weight:normal;text-anchor:middle;" transform="rotate(-0, 53.377841, 464.979375)" x="53.377841" y="464.979375">denseNet</text>
     </g>
    </g>
    <g id="xtick_2">
     <g id="line2d_2">
      <g>
       <use style="stroke:#000000;stroke-width:0.8;" x="104.105114" xlink:href="#m93c03c0918" y="450.72"/>
      </g>
     </g>
     <g id="text_2">
      <text style="font-family:TeX Gyre Pagella;font-size:10px;font-stretch:normal;font-style:normal;font-weight:normal;text-anchor:middle;" transform="rotate(-0, 104.105114, 464.979375)" x="104.105114" y="464.979375">lstm</text>
     </g>
    </g>
    <g id="xtick_3">
     <g id="line2d_3">
      <g>
       <use style="stroke:#000000;stroke-width:0.8;" x="154.832386" xlink:href="#m93c03c0918" y="450.72"/>
      </g>
     </g>
     <g id="text_3">
      <text style="font-family:TeX Gyre Pagella;font-size:10px;font-stretch:normal;font-style:normal;font-weight:normal;text-anchor:middle;" transform="rotate(-0, 154.832386, 464.979375)" x="154.832386" y="464.979375">cnn_1d</text>
     </g>
    </g>
    <g id="xtick_4">
     <g id="line2d_4">
      <g>
       <use style="stroke:#000000;stroke-width:0.8;" x="205.559659" xlink:href="#m93c03c0918" y="450.72"/>
      </g>
     </g>
     <g id="text_4">
      <text style="font-family:TeX Gyre Pagella;font-size:10px;font-stretch:normal;font-style:normal;font-weight:normal;text-anchor:middle;" transform="rotate(-0, 205.559659, 464.979375)" x="205.559659" y="464.979375">cnn_2d</text>
     </g>
    </g>
    <g id="text_5">
     <text style="font-family:TeX Gyre Pagella;font-size:10px;font-stretch:normal;font-style:normal;font-weight:normal;text-anchor:middle;" transform="rotate(-0, 129.46875, 479.048125)" x="129.46875" y="479.048125">Model</text>
    </g>
   </g>
   <g id="matplotlib.axis_2">
    <g id="ytick_1">
     <g id="line2d_5">
      <defs>
       <path d="M 0 0 
L -3.5 0 
" id="m22161d3508" style="stroke:#000000;stroke-width:0.8;"/>
      </defs>
      <g>
       <use style="stroke:#000000;stroke-width:0.8;" x="45.76875" xlink:href="#m22161d3508" y="378.090364"/>
      </g>
     </g>
     <g id="text_6">
      <text style="font-family:TeX Gyre Pagella;font-size:10px;font-stretch:normal;font-style:normal;font-weight:normal;text-anchor:end;" transform="rotate(-0, 38.76875, 381.720052)" x="38.76875" y="381.720052">0.75</text>
     </g>
    </g>
    <g id="ytick_2">
     <g id="line2d_6">
      <g>
       <use style="stroke:#000000;stroke-width:0.8;" x="45.76875" xlink:href="#m22161d3508" y="284.064777"/>
      </g>
     </g>
     <g id="text_7">
      <text style="font-family:TeX Gyre Pagella;font-size:10px;font-stretch:normal;font-style:normal;font-weight:normal;text-anchor:end;" transform="rotate(-0, 38.76875, 287.694465)" x="38.76875" y="287.694465">0.80</text>
     </g>
    </g>
    <g id="ytick_3">
     <g id="line2d_7">
      <g>
       <use style="stroke:#000000;stroke-width:0.8;" x="45.76875" xlink:href="#m22161d3508" y="190.03919"/>
      </g>
     </g>
     <g id="text_8">
      <text style="font-family:TeX Gyre Pagella;font-size:10px;font-stretch:normal;font-style:normal;font-weight:normal;text-anchor:end;" transform="rotate(-0, 38.76875, 193.668878)" x="38.76875" y="193.668878">0.85</text>
     </g>
    </g>
    <g id="ytick_4">
     <g id="line2d_8">
      <g>
       <use style="stroke:#000000;stroke-width:0.8;" x="45.76875" xlink:href="#m22161d3508" y="96.013603"/>
      </g>
     </g>
     <g id="text_9">
      <text style="font-family:TeX Gyre Pagella;font-size:10px;font-stretch:normal;font-style:normal;font-weight:normal;text-anchor:end;" transform="rotate(-0, 38.76875, 99.643291)" x="38.76875" y="99.643291">0.90</text>
     </g>
    </g>
    <g id="text_10">
     <text style="font-family:TeX Gyre Pagella;font-size:10px;font-stretch:normal;font-style:normal;font-weight:normal;text-anchor:middle;" transform="rotate(-90, 14.439063, 228.96)" x="14.439063" y="228.96">Test accuracy</text>
    </g>
   </g>
   <g id="patch_3">
    <path d="M 45.76875 450.72 
L 45.76875 7.2 
" style="fill:none;stroke:#000000;stroke-linecap:square;stroke-linejoin:miter;stroke-width:0.8;"/>
   </g>
   <g id="patch_4">
    <path d="M 213.16875 450.72 
L 213.16875 7.2 
" style="fill:none;stroke:#000000;stroke-linecap:square;stroke-linejoin:miter;stroke-width:0.8;"/>
   </g>
   <g id="patch_5">
    <path d="M 45.76875 450.72 
L 213.16875 450.72 
" style="fill:none;stroke:#000000;stroke-linecap:square;stroke-linejoin:miter;stroke-width:0.8;"/>
   </g>
   <g id="patch_6">
    <path d="M 45.76875 7.2 
L 213.16875 7.2 
" style="fill:none;stroke:#000000;stroke-linecap:square;stroke-linejoin:miter;stroke-width:0.8;"/>
   </g>
   <g id="legend_1">
    <g id="patch_7">
     <path d="M 220.16875 113.08 
L 272.35 113.08 
Q 274.35 113.08 274.35 111.08 
L 274.35 66.87375 
Q 274.35 64.87375 272.35 64.87375 
L 220.16875 64.87375 
Q 218.16875 64.87375 218.16875 66.87375 
L 218.16875 111.08 
Q 218.16875 113.08 220.16875 113.08 
z
" style="fill:#ffffff;opacity:0.8;stroke:#cccccc;stroke-linejoin:miter;"/>
    </g>
    <g id="text_11">
     <text style="font-family:TeX Gyre Pagella;font-size:10px;font-stretch:normal;font-style:normal;font-weight:normal;text-anchor:start;" transform="rotate(-0, 222.16875, 76.133125)" x="222.16875" y="76.133125">Cover area</text>
    </g>
    <g id="line2d_9"/>
    <g id="line2d_10">
     <defs>
      <path d="M 0 0 
L 3 0 
L 3 -3 
L 0 -3 
z
" id="m12c2a1c2b9" style="stroke:#440154;stroke-width:1.5;"/>
     </defs>
     <g>
      <use style="fill:#440154;stroke:#440154;stroke-width:1.5;" x="236.009375" xlink:href="#m12c2a1c2b9" y="87.701875"/>
     </g>
    </g>
    <g id="text_12">
     <text style="font-family:TeX Gyre Pagella;font-size:10px;font-stretch:normal;font-style:normal;font-weight:normal;text-anchor:start;" transform="rotate(-0, 254.009375, 91.201875)" x="254.009375" y="91.201875">0.6</text>
    </g>
    <g id="line2d_11"/>
    <g id="line2d_12">
     <defs>
      <path d="M 0 0 
L 3 0 
L 3 -3 
L 0 -3 
z
" id="mdf088f8f93" style="stroke:#fde725;stroke-width:1.5;"/>
     </defs>
     <g>
      <use style="fill:#fde725;stroke:#fde725;stroke-width:1.5;" x="236.009375" xlink:href="#mdf088f8f93" y="102.770625"/>
     </g>
    </g>
    <g id="text_13">
     <text style="font-family:TeX Gyre Pagella;font-size:10px;font-stretch:normal;font-style:normal;font-weight:normal;text-anchor:start;" transform="rotate(-0, 254.009375, 106.270625)" x="254.009375" y="106.270625">0.8</text>
    </g>
   </g>
   <g id="legend_2">
    <g id="patch_8">
     <path d="M 220.16875 171.28625 
L 274.66875 171.28625 
Q 276.66875 171.28625 276.66875 169.28625 
L 276.66875 125.08 
Q 276.66875 123.08 274.66875 123.08 
L 220.16875 123.08 
Q 218.16875 123.08 218.16875 125.08 
L 218.16875 169.28625 
Q 218.16875 171.28625 220.16875 171.28625 
z
" style="fill:#ffffff;opacity:0.8;stroke:#cccccc;stroke-linejoin:miter;"/>
    </g>
    <g id="text_14">
     <text style="font-family:TeX Gyre Pagella;font-size:10px;font-stretch:normal;font-style:normal;font-weight:normal;text-anchor:start;" transform="rotate(-0, 232.164063, 134.339375)" x="232.164063" y="134.339375">Strides</text>
    </g>
    <g id="line2d_13"/>
    <g id="line2d_14">
     <defs>
      <path d="M 0 0 
L 3.061862 0 
L 3.061862 -3.061862 
L 0 -3.061862 
z
" id="m645bfda807" style="stroke:#000000;stroke-width:1.5;"/>
     </defs>
     <g>
      <use style="stroke:#000000;stroke-width:1.5;" x="232.16875" xlink:href="#m645bfda807" y="145.908125"/>
     </g>
    </g>
    <g id="text_15">
     <text style="font-family:TeX Gyre Pagella;font-size:10px;font-stretch:normal;font-style:normal;font-weight:normal;text-anchor:start;" transform="rotate(-0, 250.16875, 149.408125)" x="250.16875" y="149.408125">0.005</text>
    </g>
    <g id="line2d_15"/>
    <g id="line2d_16">
     <defs>
      <path d="M 0 0 
L 4.330127 0 
L 4.330127 -4.330127 
L 0 -4.330127 
z
" id="m1151a7ebe0" style="stroke:#000000;stroke-width:1.5;"/>
     </defs>
     <g>
      <use style="stroke:#000000;stroke-width:1.5;" x="232.16875" xlink:href="#m1151a7ebe0" y="160.976875"/>
     </g>
    </g>
    <g id="text_16">
     <text style="font-family:TeX Gyre Pagella;font-size:10px;font-stretch:normal;font-style:normal;font-weight:normal;text-anchor:start;" transform="rotate(-0, 250.16875, 164.476875)" x="250.16875" y="164.476875">0.01</text>
    </g>
   </g>
   <g id="legend_3">
    <g id="patch_9">
     <path d="M 220.16875 60.446875 
L 282.617188 60.446875 
Q 284.617188 60.446875 284.617188 58.446875 
L 284.617188 14.2 
Q 284.617188 12.2 282.617188 12.2 
L 220.16875 12.2 
Q 218.16875 12.2 218.16875 14.2 
L 218.16875 58.446875 
Q 218.16875 60.446875 220.16875 60.446875 
z
" style="fill:#ffffff;opacity:0.8;stroke:#cccccc;stroke-linejoin:miter;"/>
    </g>
    <g id="PathCollection_4">
     <defs>
      <path d="M 0 3.75 
C 0.994512 3.75 1.948425 3.354876 2.65165 2.65165 
C 3.354876 1.948425 3.75 0.994512 3.75 0 
C 3.75 -0.994512 3.354876 -1.948425 2.65165 -2.65165 
C 1.948425 -3.354876 0.994512 -3.75 0 -3.75 
C -0.994512 -3.75 -1.948425 -3.354876 -2.65165 -2.65165 
C -3.354876 -1.948425 -3.75 -0.994512 -3.75 0 
C -3.75 0.994512 -3.354876 1.948425 -2.65165 2.65165 
C -1.948425 3.354876 -0.994512 3.75 0 3.75 
z
" id="mb660e3ee00" style="stroke:#000000;"/>
     </defs>
     <g>
      <use style="stroke:#000000;" x="232.16875" xlink:href="#mb660e3ee00" y="20.834375"/>
     </g>
    </g>
    <g id="text_17">
     <text style="font-family:TeX Gyre Pagella;font-size:10px;font-stretch:normal;font-style:normal;font-weight:normal;text-anchor:start;" transform="rotate(-0, 250.16875, 23.459375)" x="250.16875" y="23.459375">raw</text>
    </g>
    <g id="PathCollection_5">
     <defs>
      <path d="M -3.75 0 
L 3.75 0 
M 0 3.75 
L 0 -3.75 
" id="m1aa900c191" style="stroke:#000000;stroke-width:1.5;"/>
     </defs>
     <g>
      <use style="stroke:#000000;stroke-width:1.5;" x="232.16875" xlink:href="#m1aa900c191" y="35.903125"/>
     </g>
    </g>
    <g id="text_18">
     <text style="font-family:TeX Gyre Pagella;font-size:10px;font-stretch:normal;font-style:normal;font-weight:normal;text-anchor:start;" transform="rotate(-0, 250.16875, 38.528125)" x="250.16875" y="38.528125">hog</text>
    </g>
    <g id="PathCollection_6">
     <defs>
      <path d="M 0 0 
L 0 -3.75 
M 0 0 
L -3 1.875 
M 0 0 
L 3 1.875 
" id="m83b0788b4b" style="stroke:#000000;stroke-width:1.5;"/>
     </defs>
     <g>
      <use style="stroke:#000000;stroke-width:1.5;" x="232.16875" xlink:href="#m83b0788b4b" y="50.992187"/>
     </g>
    </g>
    <g id="text_19">
     <text style="font-family:TeX Gyre Pagella;font-size:10px;font-stretch:normal;font-style:normal;font-weight:normal;text-anchor:start;" transform="rotate(-0, 250.16875, 53.617187)" x="250.16875" y="53.617187">hog 3d</text>
    </g>
   </g>
  </g>
 </g>
 <defs>
  <clipPath id="p0fb18b48af">
   <rect height="443.52" width="167.4" x="45.76875" y="7.2"/>
  </clipPath>
 </defs>
</svg>
