<?xml version="1.0" encoding="utf-8" standalone="no"?>
<!DOCTYPE svg PUBLIC "-//W3C//DTD SVG 1.1//EN"
  "http://www.w3.org/Graphics/SVG/1.1/DTD/svg11.dtd">
<!-- Created with matplotlib (https://matplotlib.org/) -->
<svg height="170.06875pt" version="1.1" viewBox="0 0 595.459375 170.06875" width="595.459375pt" xmlns="http://www.w3.org/2000/svg" xmlns:xlink="http://www.w3.org/1999/xlink">
 <metadata>
  <rdf:RDF xmlns:cc="http://creativecommons.org/ns#" xmlns:dc="http://purl.org/dc/elements/1.1/" xmlns:rdf="http://www.w3.org/1999/02/22-rdf-syntax-ns#">
   <cc:Work>
    <dc:type rdf:resource="http://purl.org/dc/dcmitype/StillImage"/>
    <dc:date>2021-02-15T21:07:40.244495</dc:date>
    <dc:format>image/svg+xml</dc:format>
    <dc:creator>
     <cc:Agent>
      <dc:title>Matplotlib v3.3.1, https://matplotlib.org/</dc:title>
     </cc:Agent>
    </dc:creator>
   </cc:Work>
  </rdf:RDF>
 </metadata>
 <defs>
  <style type="text/css">*{stroke-linecap:butt;stroke-linejoin:round;}</style>
 </defs>
 <g id="figure_1">
  <g id="patch_1">
   <path d="M 0 170.06875 
L 595.459375 170.06875 
L 595.459375 0 
L 0 0 
z
" style="fill:#ffffff;"/>
  </g>
  <g id="axes_1">
   <g id="patch_2">
    <path d="M 30.259375 145.8 
L 588.259375 145.8 
L 588.259375 7.2 
L 30.259375 7.2 
z
" style="fill:#ffffff;"/>
   </g>
   <g id="patch_3">
    <path clip-path="url(#p2708c770dc)" d="M 32.948532 13.5 
L 36.231194 13.5 
L 36.231194 352.481354 
L 32.948532 352.481354 
z
" style="fill:#6495ed;opacity:0.3;"/>
   </g>
   <g id="patch_4">
    <path clip-path="url(#p2708c770dc)" d="M 36.231194 13.5 
L 68.658641 13.5 
L 68.658641 352.481354 
L 36.231194 352.481354 
z
" style="fill:#440154;"/>
   </g>
   <g id="patch_5">
    <path clip-path="url(#p2708c770dc)" d="M 68.658641 13.5 
L 71.941303 13.5 
L 71.941303 352.481354 
L 68.658641 352.481354 
z
" style="fill:#6495ed;opacity:0.3;"/>
   </g>
   <g id="patch_6">
    <path clip-path="url(#p2708c770dc)" d="M 77.319616 13.5 
L 80.602278 13.5 
L 80.602278 352.481354 
L 77.319616 352.481354 
z
" style="fill:#6495ed;opacity:0.3;"/>
   </g>
   <g id="patch_7">
    <path clip-path="url(#p2708c770dc)" d="M 80.602278 13.5 
L 138.576713 13.5 
L 138.576713 352.481354 
L 80.602278 352.481354 
z
" style="fill:#440154;"/>
   </g>
   <g id="patch_8">
    <path clip-path="url(#p2708c770dc)" d="M 138.576713 13.5 
L 141.859375 13.5 
L 141.859375 352.481354 
L 138.576713 352.481354 
z
" style="fill:#6495ed;opacity:0.3;"/>
   </g>
   <g id="patch_9">
    <path clip-path="url(#p2708c770dc)" d="M 147.237688 13.5 
L 150.52035 13.5 
L 150.52035 352.481354 
L 147.237688 352.481354 
z
" style="fill:#6495ed;opacity:0.3;"/>
   </g>
   <g id="patch_10">
    <path clip-path="url(#p2708c770dc)" d="M 150.52035 13.5 
L 189.670689 13.5 
L 189.670689 352.481354 
L 150.52035 352.481354 
z
" style="fill:#440154;"/>
   </g>
   <g id="patch_11">
    <path clip-path="url(#p2708c770dc)" d="M 189.670689 13.5 
L 192.953351 13.5 
L 192.953351 352.481354 
L 189.670689 352.481354 
z
" style="fill:#6495ed;opacity:0.3;"/>
   </g>
   <g id="patch_12">
    <path clip-path="url(#p2708c770dc)" d="M 198.331664 13.5 
L 201.614326 13.5 
L 201.614326 352.481354 
L 198.331664 352.481354 
z
" style="fill:#6495ed;opacity:0.3;"/>
   </g>
   <g id="patch_13">
    <path clip-path="url(#p2708c770dc)" d="M 201.614326 13.5 
L 227.318882 13.5 
L 227.318882 352.481354 
L 201.614326 352.481354 
z
" style="fill:#440154;"/>
   </g>
   <g id="patch_14">
    <path clip-path="url(#p2708c770dc)" d="M 227.318882 13.5 
L 230.601544 13.5 
L 230.601544 352.481354 
L 227.318882 352.481354 
z
" style="fill:#6495ed;opacity:0.3;"/>
   </g>
   <g id="patch_15">
    <path clip-path="url(#p2708c770dc)" d="M 235.979857 13.5 
L 239.262519 13.5 
L 239.262519 352.481354 
L 235.979857 352.481354 
z
" style="fill:#6495ed;opacity:0.3;"/>
   </g>
   <g id="patch_16">
    <path clip-path="url(#p2708c770dc)" d="M 239.262519 13.5 
L 295.892376 13.5 
L 295.892376 352.481354 
L 239.262519 352.481354 
z
" style="fill:#440154;"/>
   </g>
   <g id="patch_17">
    <path clip-path="url(#p2708c770dc)" d="M 295.892376 13.5 
L 299.175038 13.5 
L 299.175038 352.481354 
L 295.892376 352.481354 
z
" style="fill:#6495ed;opacity:0.3;"/>
   </g>
   <g id="patch_18">
    <path clip-path="url(#p2708c770dc)" d="M 304.553351 13.5 
L 307.836013 13.5 
L 307.836013 352.481354 
L 304.553351 352.481354 
z
" style="fill:#6495ed;opacity:0.3;"/>
   </g>
   <g id="patch_19">
    <path clip-path="url(#p2708c770dc)" d="M 307.836013 13.5 
L 369.844183 13.5 
L 369.844183 352.481354 
L 307.836013 352.481354 
z
" style="fill:#440154;"/>
   </g>
   <g id="patch_20">
    <path clip-path="url(#p2708c770dc)" d="M 369.844183 13.5 
L 373.126845 13.5 
L 373.126845 352.481354 
L 369.844183 352.481354 
z
" style="fill:#6495ed;opacity:0.3;"/>
   </g>
   <g id="patch_21">
    <path clip-path="url(#p2708c770dc)" d="M 378.505158 13.5 
L 381.78782 13.5 
L 381.78782 352.481354 
L 378.505158 352.481354 
z
" style="fill:#6495ed;opacity:0.3;"/>
   </g>
   <g id="patch_22">
    <path clip-path="url(#p2708c770dc)" d="M 381.78782 13.5 
L 431.694785 13.5 
L 431.694785 352.481354 
L 381.78782 352.481354 
z
" style="fill:#440154;"/>
   </g>
   <g id="patch_23">
    <path clip-path="url(#p2708c770dc)" d="M 431.694785 13.5 
L 434.977447 13.5 
L 434.977447 352.481354 
L 431.694785 352.481354 
z
" style="fill:#6495ed;opacity:0.3;"/>
   </g>
   <g id="patch_24">
    <path clip-path="url(#p2708c770dc)" d="M 441.700339 13.5 
L 444.983001 13.5 
L 444.983001 352.481354 
L 441.700339 352.481354 
z
" style="fill:#6495ed;opacity:0.3;"/>
   </g>
   <g id="patch_25">
    <path clip-path="url(#p2708c770dc)" d="M 444.983001 13.5 
L 481.444183 13.5 
L 481.444183 352.481354 
L 444.983001 352.481354 
z
" style="fill:#440154;"/>
   </g>
   <g id="patch_26">
    <path clip-path="url(#p2708c770dc)" d="M 481.444183 13.5 
L 484.726845 13.5 
L 484.726845 352.481354 
L 481.444183 352.481354 
z
" style="fill:#6495ed;opacity:0.3;"/>
   </g>
   <g id="patch_27">
    <path clip-path="url(#p2708c770dc)" d="M 570.779857 13.5 
L 574.062519 13.5 
L 574.062519 352.481354 
L 570.779857 352.481354 
z
" style="fill:#6495ed;opacity:0.3;"/>
   </g>
   <g id="patch_28">
    <path clip-path="url(#p2708c770dc)" d="M 574.062519 13.5 
L 585.299727 13.5 
L 585.299727 352.481354 
L 574.062519 352.481354 
z
" style="fill:#440154;"/>
   </g>
   <g id="patch_29">
    <path clip-path="url(#p2708c770dc)" d="M 585.299727 13.5 
L 588.582389 13.5 
L 588.582389 352.481354 
L 585.299727 352.481354 
z
" style="fill:#6495ed;opacity:0.3;"/>
   </g>
   <g id="patch_30">
    <path clip-path="url(#p2708c770dc)" d="M 485.647303 13.5 
L 556.363719 13.5 
L 556.363719 352.481354 
L 485.647303 352.481354 
z
" style="fill:#fde725;"/>
   </g>
   <g id="matplotlib.axis_1">
    <g id="xtick_1">
     <g id="line2d_1">
      <defs>
       <path d="M 0 0 
L 0 3.5 
" id="m8f0ce3ad47" style="stroke:#000000;stroke-width:0.8;"/>
      </defs>
      <g>
       <use style="stroke:#000000;stroke-width:0.8;" x="30.259375" xlink:href="#m8f0ce3ad47" y="145.8"/>
      </g>
     </g>
     <g id="text_1">
      <text style="font-family:TeX Gyre Pagella;font-size:10px;font-stretch:normal;font-style:normal;font-weight:normal;text-anchor:middle;" transform="rotate(-0, 30.259375, 160.059375)" x="30.259375" y="160.059375">0.0</text>
     </g>
    </g>
    <g id="xtick_2">
     <g id="line2d_2">
      <g>
       <use style="stroke:#000000;stroke-width:0.8;" x="95.912613" xlink:href="#m8f0ce3ad47" y="145.8"/>
      </g>
     </g>
     <g id="text_2">
      <text style="font-family:TeX Gyre Pagella;font-size:10px;font-stretch:normal;font-style:normal;font-weight:normal;text-anchor:middle;" transform="rotate(-0, 95.912613, 160.059375)" x="95.912613" y="160.059375">0.1</text>
     </g>
    </g>
    <g id="xtick_3">
     <g id="line2d_3">
      <g>
       <use style="stroke:#000000;stroke-width:0.8;" x="161.565851" xlink:href="#m8f0ce3ad47" y="145.8"/>
      </g>
     </g>
     <g id="text_3">
      <text style="font-family:TeX Gyre Pagella;font-size:10px;font-stretch:normal;font-style:normal;font-weight:normal;text-anchor:middle;" transform="rotate(-0, 161.565851, 160.059375)" x="161.565851" y="160.059375">0.2</text>
     </g>
    </g>
    <g id="xtick_4">
     <g id="line2d_4">
      <g>
       <use style="stroke:#000000;stroke-width:0.8;" x="227.219089" xlink:href="#m8f0ce3ad47" y="145.8"/>
      </g>
     </g>
     <g id="text_4">
      <text style="font-family:TeX Gyre Pagella;font-size:10px;font-stretch:normal;font-style:normal;font-weight:normal;text-anchor:middle;" transform="rotate(-0, 227.219089, 160.059375)" x="227.219089" y="160.059375">0.3</text>
     </g>
    </g>
    <g id="xtick_5">
     <g id="line2d_5">
      <g>
       <use style="stroke:#000000;stroke-width:0.8;" x="292.872327" xlink:href="#m8f0ce3ad47" y="145.8"/>
      </g>
     </g>
     <g id="text_5">
      <text style="font-family:TeX Gyre Pagella;font-size:10px;font-stretch:normal;font-style:normal;font-weight:normal;text-anchor:middle;" transform="rotate(-0, 292.872327, 160.059375)" x="292.872327" y="160.059375">0.4</text>
     </g>
    </g>
    <g id="xtick_6">
     <g id="line2d_6">
      <g>
       <use style="stroke:#000000;stroke-width:0.8;" x="358.525565" xlink:href="#m8f0ce3ad47" y="145.8"/>
      </g>
     </g>
     <g id="text_6">
      <text style="font-family:TeX Gyre Pagella;font-size:10px;font-stretch:normal;font-style:normal;font-weight:normal;text-anchor:middle;" transform="rotate(-0, 358.525565, 160.059375)" x="358.525565" y="160.059375">0.5</text>
     </g>
    </g>
    <g id="xtick_7">
     <g id="line2d_7">
      <g>
       <use style="stroke:#000000;stroke-width:0.8;" x="424.178803" xlink:href="#m8f0ce3ad47" y="145.8"/>
      </g>
     </g>
     <g id="text_7">
      <text style="font-family:TeX Gyre Pagella;font-size:10px;font-stretch:normal;font-style:normal;font-weight:normal;text-anchor:middle;" transform="rotate(-0, 424.178803, 160.059375)" x="424.178803" y="160.059375">0.6</text>
     </g>
    </g>
    <g id="xtick_8">
     <g id="line2d_8">
      <g>
       <use style="stroke:#000000;stroke-width:0.8;" x="489.832041" xlink:href="#m8f0ce3ad47" y="145.8"/>
      </g>
     </g>
     <g id="text_8">
      <text style="font-family:TeX Gyre Pagella;font-size:10px;font-stretch:normal;font-style:normal;font-weight:normal;text-anchor:middle;" transform="rotate(-0, 489.832041, 160.059375)" x="489.832041" y="160.059375">0.7</text>
     </g>
    </g>
    <g id="xtick_9">
     <g id="line2d_9">
      <g>
       <use style="stroke:#000000;stroke-width:0.8;" x="555.485279" xlink:href="#m8f0ce3ad47" y="145.8"/>
      </g>
     </g>
     <g id="text_9">
      <text style="font-family:TeX Gyre Pagella;font-size:10px;font-stretch:normal;font-style:normal;font-weight:normal;text-anchor:middle;" transform="rotate(-0, 555.485279, 160.059375)" x="555.485279" y="160.059375">0.8</text>
     </g>
    </g>
   </g>
   <g id="matplotlib.axis_2">
    <g id="ytick_1">
     <g id="line2d_10">
      <defs>
       <path d="M 0 0 
L -3.5 0 
" id="m2f4e3d06ee" style="stroke:#000000;stroke-width:0.8;"/>
      </defs>
      <g>
       <use style="stroke:#000000;stroke-width:0.8;" x="30.259375" xlink:href="#m2f4e3d06ee" y="140.618008"/>
      </g>
     </g>
     <g id="text_10">
      <text style="font-family:TeX Gyre Pagella;font-size:10px;font-stretch:normal;font-style:normal;font-weight:normal;text-anchor:end;" transform="rotate(-0, 23.259375, 144.247695)" x="23.259375" y="144.247695">−30</text>
     </g>
    </g>
    <g id="ytick_2">
     <g id="line2d_11">
      <g>
       <use style="stroke:#000000;stroke-width:0.8;" x="30.259375" xlink:href="#m2f4e3d06ee" y="98.245339"/>
      </g>
     </g>
     <g id="text_11">
      <text style="font-family:TeX Gyre Pagella;font-size:10px;font-stretch:normal;font-style:normal;font-weight:normal;text-anchor:end;" transform="rotate(-0, 23.259375, 101.875026)" x="23.259375" y="101.875026">−20</text>
     </g>
    </g>
    <g id="ytick_3">
     <g id="line2d_12">
      <g>
       <use style="stroke:#000000;stroke-width:0.8;" x="30.259375" xlink:href="#m2f4e3d06ee" y="55.872669"/>
      </g>
     </g>
     <g id="text_12">
      <text style="font-family:TeX Gyre Pagella;font-size:10px;font-stretch:normal;font-style:normal;font-weight:normal;text-anchor:end;" transform="rotate(-0, 23.259375, 59.502357)" x="23.259375" y="59.502357">−10</text>
     </g>
    </g>
    <g id="ytick_4">
     <g id="line2d_13">
      <g>
       <use style="stroke:#000000;stroke-width:0.8;" x="30.259375" xlink:href="#m2f4e3d06ee" y="13.5"/>
      </g>
     </g>
     <g id="text_13">
      <text style="font-family:TeX Gyre Pagella;font-size:10px;font-stretch:normal;font-style:normal;font-weight:normal;text-anchor:end;" transform="rotate(-0, 23.259375, 17.129688)" x="23.259375" y="17.129688">0</text>
     </g>
    </g>
   </g>
   <g id="LineCollection_1">
    <path clip-path="url(#p2708c770dc)" d="M 30.259375 131.436514 
L 588.259375 131.436514 
" style="fill:none;stroke:#ff8c00;stroke-dasharray:5.55,2.4;stroke-dashoffset:0;stroke-width:1.5;"/>
   </g>
   <g id="line2d_14">
    <path clip-path="url(#p2708c770dc)" d="M 30.259375 130.241857 
L 31.603953 130.058332 
L 32.948532 131.953791 
L 34.29311 134.275798 
L 35.637688 134.460665 
L 36.982267 135.59794 
L 39.671423 137.306285 
L 41.016002 137.916359 
L 42.36058 137.734079 
L 43.705158 137.382466 
L 45.049736 137.348522 
L 46.394315 137.615581 
L 47.738893 137.556195 
L 49.083471 138.193683 
L 50.42805 134.285901 
L 51.772628 133.179983 
L 53.117206 132.281772 
L 54.461785 131.56117 
L 55.806363 134.513343 
L 58.49552 136.717031 
L 59.840098 137.499217 
L 61.184676 138.027664 
L 62.529255 137.88867 
L 63.873833 137.282557 
L 65.218411 137.485866 
L 67.907568 137.510581 
L 69.252146 138.365295 
L 71.941303 127.273132 
L 73.285881 125.822116 
L 74.630459 125.372986 
L 75.975038 128.790485 
L 77.319616 134.219645 
L 78.664194 137.11421 
L 80.008773 137.537865 
L 81.353351 137.642009 
L 82.697929 138.618664 
L 84.042508 138.37509 
L 88.076242 138.677226 
L 89.420821 137.693346 
L 90.765399 137.914532 
L 92.109977 137.908552 
L 93.454556 137.611961 
L 94.799134 138.57056 
L 96.143712 138.556934 
L 97.488291 138.114916 
L 98.832869 138.569283 
L 100.177447 138.341308 
L 101.522026 137.994237 
L 102.866604 138.017771 
L 104.211182 137.563388 
L 105.555761 137.652985 
L 106.900339 138.374185 
L 108.244917 138.318888 
L 109.589495 138.034953 
L 110.934074 137.446992 
L 112.278652 135.924467 
L 113.62323 134.899886 
L 114.967809 134.491619 
L 116.312387 134.546608 
L 120.346122 137.511324 
L 121.6907 136.795587 
L 123.035279 135.757817 
L 125.724435 134.435465 
L 127.069014 135.584459 
L 128.413592 136.548878 
L 131.102748 137.935012 
L 132.447327 137.720065 
L 133.791905 137.366447 
L 135.136483 137.278823 
L 136.481062 137.652855 
L 137.82564 137.548598 
L 139.170218 138.196932 
L 140.514797 133.98918 
L 141.859375 127.607127 
L 143.203953 125.982979 
L 144.548532 125.423547 
L 145.89311 128.017689 
L 147.237688 133.784836 
L 148.582267 136.845776 
L 149.926845 137.416216 
L 151.271423 137.711886 
L 152.616002 138.610727 
L 153.96058 138.289357 
L 155.305158 138.795561 
L 156.649736 138.568152 
L 157.994315 138.515134 
L 159.338893 137.774812 
L 160.683471 137.642413 
L 162.02805 137.962297 
L 163.372628 137.660129 
L 164.717206 138.489143 
L 166.061785 138.441831 
L 167.406363 138.160579 
L 168.750941 138.450398 
L 170.09552 138.396621 
L 174.129255 137.631373 
L 175.473833 137.752118 
L 176.818411 138.408937 
L 178.162989 138.55042 
L 179.507568 138.142427 
L 180.852146 137.430634 
L 182.196724 137.00735 
L 183.541303 136.756713 
L 184.885881 136.841881 
L 186.230459 137.435354 
L 188.919616 137.581799 
L 190.264194 138.386211 
L 191.608773 133.797735 
L 192.953351 127.319264 
L 194.297929 125.830004 
L 195.642508 125.368767 
L 196.987086 128.113557 
L 198.331664 134.187446 
L 199.676242 137.094167 
L 201.020821 137.533178 
L 202.365399 137.660905 
L 203.709977 138.673185 
L 205.054556 138.30919 
L 207.743712 138.720836 
L 209.088291 138.450188 
L 210.432869 137.158903 
L 213.122026 134.88967 
L 214.466604 134.540918 
L 217.155761 136.570909 
L 218.500339 137.48016 
L 219.844917 137.998035 
L 221.189495 137.808481 
L 222.534074 137.291495 
L 225.22323 137.510354 
L 226.567809 137.521928 
L 227.912387 138.328425 
L 229.256965 133.794632 
L 230.601544 127.260783 
L 231.946122 125.845553 
L 233.2907 125.395955 
L 234.635279 128.107771 
L 235.979857 134.242581 
L 237.324435 137.09512 
L 238.669014 137.521831 
L 240.013592 137.675258 
L 241.35817 138.668562 
L 242.702748 138.327956 
L 245.391905 138.706919 
L 246.736483 138.642085 
L 248.081062 137.722214 
L 250.770218 137.896041 
L 252.114797 137.590964 
L 253.459375 138.604036 
L 254.803953 138.484245 
L 256.148532 138.09177 
L 257.49311 138.521212 
L 260.182267 138.103408 
L 261.526845 137.962895 
L 262.871423 137.582995 
L 264.216002 137.747091 
L 265.56058 138.295402 
L 266.905158 138.39835 
L 268.249736 138.169776 
L 269.594315 137.494902 
L 270.938893 136.470176 
L 272.283471 136.579605 
L 273.62805 137.338823 
L 274.972628 137.607241 
L 276.317206 138.599881 
L 277.661785 138.444304 
L 279.006363 137.284658 
L 280.350941 136.619498 
L 281.69552 135.527223 
L 283.040098 134.727482 
L 284.384676 135.373407 
L 287.073833 137.051268 
L 288.418411 137.732236 
L 289.762989 137.809936 
L 291.107568 137.321916 
L 292.452146 137.146182 
L 293.796724 137.603394 
L 295.141303 137.444147 
L 296.485881 138.19239 
L 297.830459 134.946212 
L 299.175038 128.636977 
L 300.519616 126.196859 
L 301.864194 125.516457 
L 303.208773 127.422745 
L 304.553351 132.529371 
L 305.897929 136.386237 
L 307.242508 137.233144 
L 308.587086 137.682257 
L 309.931664 138.661724 
L 311.276242 138.399772 
L 312.620821 138.970956 
L 313.965399 138.549159 
L 315.309977 138.473819 
L 316.654556 138.129237 
L 317.999134 137.635301 
L 319.343712 137.771078 
L 320.688291 137.485866 
L 322.032869 138.063806 
L 323.377447 138.367364 
L 327.411182 138.471977 
L 328.755761 137.949204 
L 330.100339 137.986834 
L 331.444917 137.631357 
L 332.789495 137.766035 
L 334.134074 138.383964 
L 335.478652 138.542661 
L 336.82323 138.265564 
L 338.167809 137.370068 
L 339.512387 136.920372 
L 340.856965 136.950631 
L 342.201544 137.793077 
L 344.8907 138.982416 
L 346.235279 138.536551 
L 347.579857 138.483825 
L 348.924435 138.134232 
L 350.269014 137.642284 
L 351.613592 137.790539 
L 352.95817 137.477008 
L 354.302748 138.066586 
L 355.647327 138.350262 
L 358.336483 138.557031 
L 359.681062 138.478345 
L 361.02564 137.944032 
L 362.370218 137.953762 
L 363.714797 137.616907 
L 365.059375 137.759618 
L 366.403953 138.388862 
L 367.748532 138.572807 
L 369.09311 138.281873 
L 370.437688 137.369664 
L 371.782267 131.847238 
L 373.126845 127.992603 
L 374.471423 127.63176 
L 375.816002 127.821686 
L 377.16058 131.406061 
L 378.505158 136.052404 
L 379.849736 137.459115 
L 381.194315 137.622629 
L 382.538893 138.540996 
L 383.883471 138.350182 
L 386.572628 138.591137 
L 387.917206 138.560118 
L 390.606363 137.684553 
L 393.29552 137.728793 
L 394.640098 138.235305 
L 397.329255 138.63743 
L 398.673833 138.394745 
L 400.018411 138.681024 
L 401.362989 137.961246 
L 402.707568 137.945422 
L 404.052146 137.584337 
L 405.396724 137.399325 
L 406.741303 138.299492 
L 408.085881 138.525948 
L 409.430459 138.321378 
L 410.775038 137.64799 
L 412.119616 136.490768 
L 413.464194 134.511646 
L 414.808773 133.989487 
L 417.497929 133.657432 
L 424.220821 137.492687 
L 425.565399 137.925136 
L 426.909977 137.311797 
L 429.599134 137.550732 
L 430.943712 137.306124 
L 432.288291 138.196576 
L 433.632869 135.283148 
L 436.322026 126.480875 
L 437.666604 125.587384 
L 439.011182 127.18263 
L 440.355761 130.349234 
L 441.700339 135.83896 
L 443.044917 137.375418 
L 444.389495 137.354373 
L 445.734074 138.423194 
L 447.078652 138.371663 
L 451.112387 138.576104 
L 452.456965 138.274518 
L 453.801544 137.624989 
L 455.146122 137.843945 
L 456.4907 137.81944 
L 457.835279 137.953407 
L 459.179857 138.506939 
L 460.524435 138.652285 
L 461.869014 138.161436 
L 463.213592 138.700566 
L 464.55817 137.982534 
L 465.902748 137.814025 
L 467.247327 137.957399 
L 468.591905 137.614046 
L 469.936483 138.235628 
L 471.281062 138.659413 
L 472.62564 137.871472 
L 476.659375 137.081446 
L 478.003953 138.032513 
L 479.348532 139.222143 
L 480.69311 139.5 
L 482.037688 139.013919 
L 483.382267 138.718961 
L 484.726845 70.20309 
L 486.071423 67.491322 
L 487.416002 66.694152 
L 488.76058 52.20526 
L 490.105158 59.8566 
L 491.449736 45.545802 
L 492.794315 45.131643 
L 494.138893 41.501912 
L 495.483471 40.833543 
L 496.82805 51.11048 
L 498.172628 43.053767 
L 499.517206 55.168885 
L 500.861785 56.538945 
L 502.206363 47.513626 
L 503.550941 58.88987 
L 504.89552 60.310077 
L 506.240098 47.917578 
L 507.584676 57.24862 
L 508.929255 49.754621 
L 510.273833 48.686034 
L 511.618411 62.093908 
L 512.962989 62.891952 
L 514.307568 58.829966 
L 515.652146 59.848518 
L 516.996724 59.843248 
L 518.341303 46.564677 
L 519.685881 52.445666 
L 521.030459 45.198788 
L 522.375038 41.090371 
L 523.719616 48.323179 
L 525.064194 44.553404 
L 526.408773 51.435075 
L 527.753351 51.751782 
L 529.097929 53.383802 
L 530.442508 65.508013 
L 531.787086 67.435751 
L 533.131664 71.785696 
L 534.476242 68.550801 
L 535.820821 68.51225 
L 537.165399 54.720612 
L 538.509977 48.417026 
L 539.854556 29.624661 
L 541.199134 23.126647 
L 542.543712 19.902792 
L 543.888291 15.2125 
L 545.232869 15.160226 
L 546.577447 14.900924 
L 547.922026 13.5 
L 549.266604 15.301498 
L 551.955761 24.113178 
L 553.300339 33.715313 
L 555.989495 64.193371 
L 558.678652 97.950267 
L 560.02323 107.250598 
L 561.367809 114.401422 
L 562.712387 118.923901 
L 564.056965 121.92893 
L 565.401544 125.53511 
L 566.746122 127.914095 
L 568.0907 130.769608 
L 569.435279 130.922825 
L 570.779857 132.056658 
L 573.469014 132.77414 
L 574.813592 133.547146 
L 576.15817 134.097317 
L 577.502748 134.342733 
L 578.847327 135.28672 
L 580.191905 137.085163 
L 581.536483 137.60029 
L 582.881062 138.486734 
L 584.22564 138.073908 
L 585.570218 138.594046 
L 586.914797 138.851553 
L 588.259375 138.765497 
L 588.259375 138.765497 
" style="fill:none;stroke:#1f77b4;stroke-linecap:square;stroke-width:1.5;"/>
   </g>
   <g id="patch_31">
    <path d="M 30.259375 145.8 
L 30.259375 7.2 
" style="fill:none;stroke:#000000;stroke-linecap:square;stroke-linejoin:miter;stroke-width:0.8;"/>
   </g>
   <g id="patch_32">
    <path d="M 588.259375 145.8 
L 588.259375 7.2 
" style="fill:none;stroke:#000000;stroke-linecap:square;stroke-linejoin:miter;stroke-width:0.8;"/>
   </g>
   <g id="patch_33">
    <path d="M 30.259375 145.8 
L 588.259375 145.8 
" style="fill:none;stroke:#000000;stroke-linecap:square;stroke-linejoin:miter;stroke-width:0.8;"/>
   </g>
   <g id="patch_34">
    <path d="M 30.259375 7.2 
L 588.259375 7.2 
" style="fill:none;stroke:#000000;stroke-linecap:square;stroke-linejoin:miter;stroke-width:0.8;"/>
   </g>
   <g id="legend_1">
    <g id="patch_35">
     <path d="M 258.864844 45.3375 
L 359.653906 45.3375 
Q 361.653906 45.3375 361.653906 43.3375 
L 361.653906 14.2 
Q 361.653906 12.2 359.653906 12.2 
L 258.864844 12.2 
Q 256.864844 12.2 256.864844 14.2 
L 256.864844 43.3375 
Q 256.864844 45.3375 258.864844 45.3375 
z
" style="fill:#ffffff;opacity:0.8;stroke:#cccccc;stroke-linejoin:miter;"/>
    </g>
    <g id="line2d_15">
     <path d="M 260.864844 19.959375 
L 280.864844 19.959375 
" style="fill:none;stroke:#1f77b4;stroke-linecap:square;stroke-width:1.5;"/>
    </g>
    <g id="line2d_16"/>
    <g id="text_14">
     <text style="font-family:TeX Gyre Pagella;font-size:10px;font-stretch:normal;font-style:normal;font-weight:normal;text-anchor:start;" transform="rotate(-0, 288.864844, 23.459375)" x="288.864844" y="23.459375">MSE</text>
    </g>
    <g id="line2d_17">
     <path d="M 260.864844 35.028125 
L 280.864844 35.028125 
" style="fill:none;stroke:#ff8c00;stroke-dasharray:5.55,2.4;stroke-dashoffset:0;stroke-width:1.5;"/>
    </g>
    <g id="text_15">
     <text style="font-family:TeX Gyre Pagella;font-size:10px;font-stretch:normal;font-style:normal;font-weight:normal;text-anchor:start;" transform="rotate(-0, 288.864844, 38.528125)" x="288.864844" y="38.528125">silent threshold</text>
    </g>
   </g>
  </g>
 </g>
 <defs>
  <clipPath id="p2708c770dc">
   <rect height="138.6" width="558" x="30.259375" y="7.2"/>
  </clipPath>
 </defs>
</svg>
